<svg width="199" height="52" viewBox="0 0 199 52" fill="#000000" xmlns="http://www.w3.org/2000/svg">
<path d="M21.1294 51.6084C10.1744 51.6084 2.05179 46.3079 0.035997 35.8384C-0.174869 34.7432 0.563136 33.7095 1.6618 33.442L11.1714 31.1267C12.5693 30.7864 13.9027 31.8153 14.1273 33.2162C14.8031 37.4309 16.9348 39.0783 21.1294 39.0783C26.377 39.0783 28.3648 36.494 28.3648 29.6807V2.91767C28.3648 1.69222 29.3734 0.698795 30.6176 0.698795H40.4238C41.668 0.698795 42.6766 1.69222 42.6766 2.91767V30.5422C42.6766 44.4819 33.7715 51.6084 21.1294 51.6084Z" fill="#000000"/>
<path d="M59.0724 52C51.678 52 46.5893 48.3976 46.5893 42.5241C46.5893 36.1807 49.2927 32.5783 58.5953 29.2892C67.898 26 72.7481 26.1566 72.7481 22.3976C72.7481 20.5181 71.0784 19.5 67.8185 19.5C64.1315 19.5 58.2752 22.2142 51.5586 25.8573C50.0452 26.6782 48.1795 25.6103 48.1795 23.9087V16.8759C48.1795 16.1199 48.568 15.4123 49.2259 15.0229C55.2191 11.4761 62.3193 9.24096 68.8521 9.24096C78.3934 9.24096 86.0263 13.3916 86.0263 22.3976V48.8414C86.0263 50.0668 85.0177 51.0602 83.7735 51.0602H75.562C74.4131 51.0602 73.4482 50.2086 73.3227 49.0837L72.7481 43.9337C71.953 47.3795 65.9103 52 59.0724 52ZM64.0815 42.6807C67.421 42.6807 72.7481 38.9217 72.7481 29.2108C70.6809 31.3253 67.9775 32.8916 65.9103 34.0663C63.1274 35.7892 60.9011 37.1205 60.9011 39.8614C60.9011 41.3494 62.2528 42.6807 64.0815 42.6807Z" fill="#000000"/>
<path d="M113.444 52C106.673 52 99.1191 50.0368 93.1396 46.3759C92.5039 45.9867 92.1352 45.2931 92.1352 44.5559V36.7245C92.1352 35.0187 94.0096 33.9502 95.5262 34.7737C102.289 38.4455 108.51 41.2711 112.331 41.2711C114.637 41.2711 115.67 40.5663 115.67 39.2349C115.67 37.1205 112.569 35.8675 103.664 32.8916C93.6459 29.5241 90.545 27.0181 90.545 20.8313C90.545 12.9217 97.86 9.24096 107.004 9.24096C113.837 9.24096 121.38 11.4066 127.355 14.946C128.009 15.3333 128.392 16.0378 128.392 16.7891V23.9087C128.392 25.6103 126.523 26.6833 124.991 25.8961C118.151 22.3808 111.851 20.1265 107.958 20.1265C105.731 20.1265 104.857 20.753 104.857 22.006C104.857 24.0422 107.958 25.3735 116.863 28.3494C126.881 31.6386 129.982 34.2229 129.982 40.4096C129.982 48.3976 122.588 52 113.444 52Z" fill="#000000"/>
<path d="M135.737 21.1849C135.737 19.7358 137.124 18.6885 138.564 18.987C141.863 19.671 143.923 19.671 147.222 18.987C148.662 18.6885 150.049 19.7358 150.049 21.1849V48.8414C150.049 50.0668 149.04 51.0602 147.796 51.0602H137.99C136.746 51.0602 135.737 50.0668 135.737 48.8414V21.1849ZM142.893 14.488C137.884 14.488 134.942 11.8253 134.942 7.20482C134.942 2.66265 137.884 0 142.893 0C147.902 0 150.844 2.66265 150.844 7.20482C150.844 11.8253 147.902 14.488 142.893 14.488Z" fill="#000000"/>
<path d="M159.437 51.0602C158.192 51.0602 157.184 50.0668 157.184 48.8414V11.9297C157.184 10.7043 158.192 9.71084 159.437 9.71084H169.243C170.487 9.71084 171.496 10.7043 171.496 11.9297V17.6205C174.358 12.3735 178.254 9.24096 184.694 9.24096C193.758 9.24096 199.006 14.0964 198.927 22.3976L199 48.8353C199.003 50.0631 197.994 51.0602 196.747 51.0602H186.947C185.703 51.0602 184.694 50.0668 184.694 48.8414V28.5843C184.694 22.7892 182.786 20.5181 178.095 20.5181C173.404 20.5181 171.496 22.7892 171.496 28.5843V48.8414C171.496 50.0668 170.487 51.0602 169.243 51.0602H159.437Z" fill="#000000"/>
</svg>
